# xmcd
#
# Track frame offsets:
#	150
#	2068
#	88073
#	102833
#	110550
#	128179
#
# Disc length: 1914 seconds
#
# Revision: 2
# Processed by: cddbd v1.5.2PL0 Copyright (c) Steve Scherf et al.
# Submitted via: audiograbber 1.83.01
#
DISCID=45077806
DTITLE=Harry Voß - Der Schlunz - Süßer Schrecken - saurer Schrecken
DYEAR=1900
DGENRE=
TTITLE0=Intro
TTITLE1=Hörspiel: Süßer Schrecken, saurer Schrecken
TTITLE2=Lied: Raus aus der Finsternis
TTITLE3=Bibeltext: Lukas 18,9-17
TTITLE4=Lied: Wer Gott vertraut
TTITLE5=Lied von Lukas: Süßer Schrecken, saurer Schrecken
EXTD=
EXTT0=
EXTT1=
EXTT2=
EXTT3=
EXTT4=
EXTT5=
PLAYORDER=
